<mxfile host="app.diagrams.net" modified="2020-11-09T16:24:23.167Z" agent="5.0 (Macintosh)" etag="2eFjcdsP30vMNXNsBn8D" version="13.9.2" type="github">
  <diagram id="prtHgNgQTEPvFCAcTncT" name="Page-1">
    <mxGraphModel dx="778" dy="727" grid="1" gridSize="10" guides="1" tooltips="1" connect="1" arrows="1" fold="1" page="1" pageScale="1" pageWidth="827" pageHeight="1169" math="0" shadow="0">
      <root>
        <mxCell id="0" />
        <mxCell id="1" parent="0" />
        <mxCell id="pat0k7U_LlTCRJRGfQzb-5" value="" style="group" vertex="1" connectable="0" parent="1">
          <mxGeometry x="190" y="180" width="630" height="280" as="geometry" />
        </mxCell>
        <mxCell id="pat0k7U_LlTCRJRGfQzb-2" value="" style="verticalLabelPosition=bottom;verticalAlign=top;html=1;shape=mxgraph.basic.rect;fillColor2=none;strokeWidth=1;size=20;indent=5;" vertex="1" parent="pat0k7U_LlTCRJRGfQzb-5">
          <mxGeometry width="630" height="250" as="geometry" />
        </mxCell>
        <mxCell id="pat0k7U_LlTCRJRGfQzb-3" value="Tiempo" style="text;strokeColor=none;fillColor=none;html=1;fontSize=14;fontStyle=0;verticalAlign=middle;align=center;" vertex="1" parent="pat0k7U_LlTCRJRGfQzb-5">
          <mxGeometry x="200" y="20" width="120" as="geometry" />
        </mxCell>
        <mxCell id="pat0k7U_LlTCRJRGfQzb-4" value="D" style="text;strokeColor=none;fillColor=none;html=1;fontSize=17;fontStyle=1;verticalAlign=middle;align=center;" vertex="1" parent="pat0k7U_LlTCRJRGfQzb-5">
          <mxGeometry x="530" width="100" height="40" as="geometry" />
        </mxCell>
        <mxCell id="pat0k7U_LlTCRJRGfQzb-8" value="" style="group" vertex="1" connectable="0" parent="pat0k7U_LlTCRJRGfQzb-5">
          <mxGeometry x="19.180000000000007" y="140" width="90" height="35" as="geometry" />
        </mxCell>
        <mxCell id="pat0k7U_LlTCRJRGfQzb-6" value="" style="verticalLabelPosition=bottom;verticalAlign=top;html=1;shape=mxgraph.basic.rect;fillColor2=none;strokeWidth=1;size=20;indent=5;fontSize=17;" vertex="1" parent="pat0k7U_LlTCRJRGfQzb-8">
          <mxGeometry width="90" height="35" as="geometry" />
        </mxCell>
        <mxCell id="pat0k7U_LlTCRJRGfQzb-7" value="N" style="text;strokeColor=none;fillColor=none;html=1;fontSize=12;fontStyle=1;verticalAlign=middle;align=center;" vertex="1" parent="pat0k7U_LlTCRJRGfQzb-8">
          <mxGeometry x="65.45454545454545" width="24.545454545454547" height="19.444444444444446" as="geometry" />
        </mxCell>
        <mxCell id="pat0k7U_LlTCRJRGfQzb-9" value="Día" style="text;strokeColor=none;fillColor=none;html=1;fontSize=14;fontStyle=0;verticalAlign=middle;align=center;" vertex="1" parent="pat0k7U_LlTCRJRGfQzb-8">
          <mxGeometry x="-8.181818181818182" y="3.888888888888889" width="81.81818181818183" height="31.11111111111111" as="geometry" />
        </mxCell>
        <mxCell id="pat0k7U_LlTCRJRGfQzb-10" value="" style="group" vertex="1" connectable="0" parent="pat0k7U_LlTCRJRGfQzb-5">
          <mxGeometry x="158.18" y="60" width="90" height="35" as="geometry" />
        </mxCell>
        <mxCell id="pat0k7U_LlTCRJRGfQzb-11" value="" style="verticalLabelPosition=bottom;verticalAlign=top;html=1;shape=mxgraph.basic.rect;fillColor2=none;strokeWidth=1;size=20;indent=5;fontSize=17;" vertex="1" parent="pat0k7U_LlTCRJRGfQzb-10">
          <mxGeometry width="90" height="35" as="geometry" />
        </mxCell>
        <mxCell id="pat0k7U_LlTCRJRGfQzb-12" value="N" style="text;strokeColor=none;fillColor=none;html=1;fontSize=12;fontStyle=1;verticalAlign=middle;align=center;" vertex="1" parent="pat0k7U_LlTCRJRGfQzb-10">
          <mxGeometry x="65.45454545454545" width="24.545454545454547" height="19.444444444444446" as="geometry" />
        </mxCell>
        <mxCell id="pat0k7U_LlTCRJRGfQzb-13" value="Mes" style="text;strokeColor=none;fillColor=none;html=1;fontSize=14;fontStyle=0;verticalAlign=middle;align=center;" vertex="1" parent="pat0k7U_LlTCRJRGfQzb-10">
          <mxGeometry x="-8.181818181818182" y="3.888888888888889" width="81.81818181818183" height="31.11111111111111" as="geometry" />
        </mxCell>
        <mxCell id="pat0k7U_LlTCRJRGfQzb-14" value="" style="group" vertex="1" connectable="0" parent="pat0k7U_LlTCRJRGfQzb-5">
          <mxGeometry x="295.18" y="60" width="90" height="35" as="geometry" />
        </mxCell>
        <mxCell id="pat0k7U_LlTCRJRGfQzb-15" value="" style="verticalLabelPosition=bottom;verticalAlign=top;html=1;shape=mxgraph.basic.rect;fillColor2=none;strokeWidth=1;size=20;indent=5;fontSize=17;" vertex="1" parent="pat0k7U_LlTCRJRGfQzb-14">
          <mxGeometry width="90" height="35" as="geometry" />
        </mxCell>
        <mxCell id="pat0k7U_LlTCRJRGfQzb-16" value="N" style="text;strokeColor=none;fillColor=none;html=1;fontSize=12;fontStyle=1;verticalAlign=middle;align=center;" vertex="1" parent="pat0k7U_LlTCRJRGfQzb-14">
          <mxGeometry x="65.45454545454545" width="24.545454545454547" height="19.444444444444446" as="geometry" />
        </mxCell>
        <mxCell id="pat0k7U_LlTCRJRGfQzb-17" value="Trimestre" style="text;strokeColor=none;fillColor=none;html=1;fontSize=14;fontStyle=0;verticalAlign=middle;align=center;" vertex="1" parent="pat0k7U_LlTCRJRGfQzb-14">
          <mxGeometry x="-8.181818181818182" y="3.888888888888889" width="81.81818181818183" height="31.11111111111111" as="geometry" />
        </mxCell>
        <mxCell id="pat0k7U_LlTCRJRGfQzb-18" value="" style="group" vertex="1" connectable="0" parent="pat0k7U_LlTCRJRGfQzb-5">
          <mxGeometry x="208.18" y="190" width="90" height="35" as="geometry" />
        </mxCell>
        <mxCell id="pat0k7U_LlTCRJRGfQzb-19" value="" style="verticalLabelPosition=bottom;verticalAlign=top;html=1;shape=mxgraph.basic.rect;fillColor2=none;strokeWidth=1;size=20;indent=5;fontSize=17;" vertex="1" parent="pat0k7U_LlTCRJRGfQzb-18">
          <mxGeometry width="90" height="35" as="geometry" />
        </mxCell>
        <mxCell id="pat0k7U_LlTCRJRGfQzb-20" value="N" style="text;strokeColor=none;fillColor=none;html=1;fontSize=12;fontStyle=1;verticalAlign=middle;align=center;" vertex="1" parent="pat0k7U_LlTCRJRGfQzb-18">
          <mxGeometry x="65.45454545454545" width="24.545454545454547" height="19.444444444444446" as="geometry" />
        </mxCell>
        <mxCell id="pat0k7U_LlTCRJRGfQzb-21" value="Semana" style="text;strokeColor=none;fillColor=none;html=1;fontSize=14;fontStyle=0;verticalAlign=middle;align=center;" vertex="1" parent="pat0k7U_LlTCRJRGfQzb-18">
          <mxGeometry x="-8.181818181818182" y="3.888888888888889" width="81.81818181818183" height="31.11111111111111" as="geometry" />
        </mxCell>
        <mxCell id="pat0k7U_LlTCRJRGfQzb-22" value="" style="group" vertex="1" connectable="0" parent="pat0k7U_LlTCRJRGfQzb-5">
          <mxGeometry x="408.18000000000006" y="140" width="90" height="35" as="geometry" />
        </mxCell>
        <mxCell id="pat0k7U_LlTCRJRGfQzb-23" value="" style="verticalLabelPosition=bottom;verticalAlign=top;html=1;shape=mxgraph.basic.rect;fillColor2=none;strokeWidth=1;size=20;indent=5;fontSize=17;" vertex="1" parent="pat0k7U_LlTCRJRGfQzb-22">
          <mxGeometry width="90" height="35" as="geometry" />
        </mxCell>
        <mxCell id="pat0k7U_LlTCRJRGfQzb-24" value="N" style="text;strokeColor=none;fillColor=none;html=1;fontSize=12;fontStyle=1;verticalAlign=middle;align=center;" vertex="1" parent="pat0k7U_LlTCRJRGfQzb-22">
          <mxGeometry x="65.45454545454545" width="24.545454545454547" height="19.444444444444446" as="geometry" />
        </mxCell>
        <mxCell id="pat0k7U_LlTCRJRGfQzb-25" value="Año" style="text;strokeColor=none;fillColor=none;html=1;fontSize=14;fontStyle=0;verticalAlign=middle;align=center;" vertex="1" parent="pat0k7U_LlTCRJRGfQzb-22">
          <mxGeometry x="-8.181818181818182" y="3.888888888888889" width="81.81818181818183" height="31.11111111111111" as="geometry" />
        </mxCell>
        <mxCell id="pat0k7U_LlTCRJRGfQzb-26" value="" style="group" vertex="1" connectable="0" parent="pat0k7U_LlTCRJRGfQzb-5">
          <mxGeometry x="530.1800000000001" y="140" width="90" height="35" as="geometry" />
        </mxCell>
        <mxCell id="pat0k7U_LlTCRJRGfQzb-27" value="" style="verticalLabelPosition=bottom;verticalAlign=top;html=1;shape=mxgraph.basic.rect;fillColor2=none;strokeWidth=1;size=20;indent=5;fontSize=17;" vertex="1" parent="pat0k7U_LlTCRJRGfQzb-26">
          <mxGeometry width="90" height="35" as="geometry" />
        </mxCell>
        <mxCell id="pat0k7U_LlTCRJRGfQzb-28" value="N" style="text;strokeColor=none;fillColor=none;html=1;fontSize=12;fontStyle=1;verticalAlign=middle;align=center;" vertex="1" parent="pat0k7U_LlTCRJRGfQzb-26">
          <mxGeometry x="65.45454545454545" width="24.545454545454547" height="19.444444444444446" as="geometry" />
        </mxCell>
        <mxCell id="pat0k7U_LlTCRJRGfQzb-29" value="All" style="text;strokeColor=none;fillColor=none;html=1;fontSize=14;fontStyle=0;verticalAlign=middle;align=center;" vertex="1" parent="pat0k7U_LlTCRJRGfQzb-26">
          <mxGeometry x="-8.181818181818182" y="3.888888888888889" width="81.81818181818183" height="31.11111111111111" as="geometry" />
        </mxCell>
        <mxCell id="pat0k7U_LlTCRJRGfQzb-30" value="" style="endArrow=diamondThin;endFill=0;endSize=24;html=1;fontSize=14;exitX=1.031;exitY=0.6;exitDx=0;exitDy=0;exitPerimeter=0;entryX=0.122;entryY=0.839;entryDx=0;entryDy=0;entryPerimeter=0;" edge="1" parent="pat0k7U_LlTCRJRGfQzb-5" source="pat0k7U_LlTCRJRGfQzb-6" target="pat0k7U_LlTCRJRGfQzb-13">
          <mxGeometry width="160" relative="1" as="geometry">
            <mxPoint x="20" y="440" as="sourcePoint" />
            <mxPoint x="180" y="440" as="targetPoint" />
          </mxGeometry>
        </mxCell>
        <mxCell id="pat0k7U_LlTCRJRGfQzb-32" value="" style="endArrow=diamondThin;endFill=0;endSize=24;html=1;fontSize=14;exitX=1.042;exitY=0.543;exitDx=0;exitDy=0;exitPerimeter=0;" edge="1" parent="pat0k7U_LlTCRJRGfQzb-5" source="pat0k7U_LlTCRJRGfQzb-11">
          <mxGeometry width="160" relative="1" as="geometry">
            <mxPoint x="120" y="170" as="sourcePoint" />
            <mxPoint x="300" y="79" as="targetPoint" />
          </mxGeometry>
        </mxCell>
        <mxCell id="pat0k7U_LlTCRJRGfQzb-33" value="" style="endArrow=diamondThin;endFill=0;endSize=24;html=1;fontSize=14;exitX=1;exitY=0.75;exitDx=0;exitDy=0;entryX=0.122;entryY=0.518;entryDx=0;entryDy=0;entryPerimeter=0;" edge="1" parent="pat0k7U_LlTCRJRGfQzb-5" source="pat0k7U_LlTCRJRGfQzb-20" target="pat0k7U_LlTCRJRGfQzb-25">
          <mxGeometry width="160" relative="1" as="geometry">
            <mxPoint x="261.96000000000004" y="89.005" as="sourcePoint" />
            <mxPoint x="310" y="89" as="targetPoint" />
          </mxGeometry>
        </mxCell>
        <mxCell id="pat0k7U_LlTCRJRGfQzb-35" value="" style="endArrow=diamondThin;endFill=0;endSize=24;html=1;fontSize=14;exitX=1;exitY=1;exitDx=0;exitDy=0;entryX=0.22;entryY=0.5;entryDx=0;entryDy=0;entryPerimeter=0;" edge="1" parent="pat0k7U_LlTCRJRGfQzb-5" source="pat0k7U_LlTCRJRGfQzb-24" target="pat0k7U_LlTCRJRGfQzb-29">
          <mxGeometry width="160" relative="1" as="geometry">
            <mxPoint x="395.99" y="98" as="sourcePoint" />
            <mxPoint x="420" y="170" as="targetPoint" />
          </mxGeometry>
        </mxCell>
        <mxCell id="pat0k7U_LlTCRJRGfQzb-31" value="" style="endArrow=diamondThin;endFill=0;endSize=24;html=1;fontSize=14;entryX=0.122;entryY=0.518;entryDx=0;entryDy=0;entryPerimeter=0;" edge="1" parent="1" target="pat0k7U_LlTCRJRGfQzb-21">
          <mxGeometry width="160" relative="1" as="geometry">
            <mxPoint x="300" y="340" as="sourcePoint" />
            <mxPoint x="359.98" y="279.9911111111111" as="targetPoint" />
          </mxGeometry>
        </mxCell>
        <mxCell id="pat0k7U_LlTCRJRGfQzb-34" value="" style="endArrow=diamondThin;endFill=0;endSize=24;html=1;fontSize=14;exitX=1.009;exitY=0.8;exitDx=0;exitDy=0;exitPerimeter=0;" edge="1" parent="1" source="pat0k7U_LlTCRJRGfQzb-15">
          <mxGeometry width="160" relative="1" as="geometry">
            <mxPoint x="498.17999999999984" y="394.58333333333326" as="sourcePoint" />
            <mxPoint x="600" y="340" as="targetPoint" />
          </mxGeometry>
        </mxCell>
      </root>
    </mxGraphModel>
  </diagram>
</mxfile>
